<svg width="103" height="28" viewBox="0 0 103 28" fill="none" xmlns="http://www.w3.org/2000/svg">
<path d="M1.81152 24.4023C1.92546 24.1289 2.09635 23.958 2.32422 23.8896C2.57487 23.8213 2.83691 23.9922 3.11035 24.4023C3.11035 24.4479 3.21289 24.5163 3.41797 24.6074C3.64583 24.6758 3.91927 24.7669 4.23828 24.8809C4.58008 24.972 4.96745 25.0745 5.40039 25.1885C5.85612 25.2796 6.30046 25.3708 6.7334 25.4619C7.16634 25.5303 7.58789 25.5986 7.99805 25.667C8.4082 25.7126 8.76139 25.7354 9.05762 25.7354C9.83236 25.7354 10.5387 25.5758 11.1768 25.2568C11.8376 24.915 12.3958 24.4821 12.8516 23.958C13.3301 23.4339 13.6947 22.8415 13.9453 22.1807C14.196 21.4971 14.3213 20.8021 14.3213 20.0957C14.3213 19.8906 14.2871 19.5374 14.2188 19.0361C14.1504 18.512 14.0365 17.9993 13.877 17.498C13.7174 16.974 13.501 16.5068 13.2275 16.0967C12.9769 15.6865 12.6693 15.4814 12.3047 15.4814C9.9349 15.7549 7.98665 15.8688 6.45996 15.8232C4.95605 15.7549 3.75977 15.5726 2.87109 15.2764C1.98242 14.9801 1.35579 14.5814 0.991211 14.0801C0.649414 13.556 0.467122 12.9635 0.444336 12.3027C0.444336 11.4824 0.649414 10.6963 1.05957 9.94434C1.46973 9.1696 1.99382 8.486 2.63184 7.89355C3.26986 7.30111 3.97624 6.83398 4.75098 6.49219C5.5485 6.1276 6.33464 5.94531 7.10938 5.94531C7.7474 5.94531 8.4082 6.02507 9.0918 6.18457C9.79818 6.34408 10.4476 6.59473 11.04 6.93652C11.6325 7.25553 12.111 7.68848 12.4756 8.23535C12.863 8.75944 13.0566 9.39746 13.0566 10.1494C12.5098 10.1494 12.0085 10.0013 11.5527 9.70508C11.097 9.38607 10.6413 9.05566 10.1855 8.71387C9.72982 8.37207 9.2513 8.05306 8.75 7.75684C8.2487 7.43783 7.66764 7.27832 7.00684 7.27832C6.45996 7.27832 5.90169 7.41504 5.33203 7.68848C4.78516 7.96191 4.28385 8.3151 3.82812 8.74805C3.39518 9.18099 3.0306 9.6709 2.73438 10.2178C2.46094 10.7419 2.32422 11.2887 2.32422 11.8584C2.32422 12.0863 2.32422 12.3369 2.32422 12.6104C2.34701 12.861 2.40397 13.1117 2.49512 13.3623C2.58626 13.5902 2.72298 13.7839 2.90527 13.9434C3.11035 14.1029 3.39518 14.1826 3.75977 14.1826H12.9541C13.3415 14.1826 13.6719 14.3079 13.9453 14.5586C14.2415 14.7865 14.4808 15.0827 14.6631 15.4473C14.8682 15.8118 15.0277 16.222 15.1416 16.6777C15.2783 17.1335 15.3809 17.5778 15.4492 18.0107C15.5404 18.4437 15.5973 18.8538 15.6201 19.2412C15.6429 19.6058 15.6543 19.8906 15.6543 20.0957C15.6543 20.9844 15.529 21.8275 15.2783 22.625C15.0277 23.3997 14.6517 24.1061 14.1504 24.7441C13.6491 25.3594 13.0225 25.8721 12.2705 26.2822C11.5186 26.6696 10.6527 26.9089 9.67285 27C9.19434 27.0456 8.56771 27.0342 7.79297 26.9658C7.04102 26.8975 6.27767 26.7721 5.50293 26.5898C4.72819 26.3848 3.99902 26.1113 3.31543 25.7695C2.63184 25.4049 2.13053 24.9492 1.81152 24.4023ZM18.6621 26.0771C18.6393 25.5986 18.5824 24.8695 18.4912 23.8896C18.4229 22.887 18.3431 21.7705 18.252 20.54C18.1608 19.2868 18.0697 17.9652 17.9785 16.5752C17.8874 15.1852 17.7962 13.875 17.7051 12.6445C17.6367 11.3913 17.5684 10.2747 17.5 9.29492C17.4316 8.29232 17.3861 7.55176 17.3633 7.07324C17.3405 6.86816 17.3177 6.51497 17.2949 6.01367C17.2949 5.48958 17.2835 4.94271 17.2607 4.37305C17.238 3.7806 17.2152 3.23372 17.1924 2.73242C17.1924 2.20833 17.1924 1.84375 17.1924 1.63867C17.5114 1.63867 17.7962 1.70703 18.0469 1.84375C18.2975 1.95768 18.5026 2.16276 18.6621 2.45898C18.7077 2.9375 18.7533 3.62109 18.7988 4.50977C18.8672 5.37565 18.9355 6.37826 19.0039 7.51758C19.0723 8.6569 19.1406 9.87598 19.209 11.1748C19.3001 12.4736 19.3799 13.7611 19.4482 15.0371C19.5166 14.9232 19.585 14.8206 19.6533 14.7295C19.7217 14.6383 19.7673 14.5814 19.79 14.5586C20.0407 14.2852 20.3369 13.9661 20.6787 13.6016C21.0205 13.237 21.3737 12.861 21.7383 12.4736C22.1257 12.0863 22.5016 11.7103 22.8662 11.3457C23.2536 10.9583 23.5954 10.6165 23.8916 10.3203C24.2106 10.0013 24.4727 9.75065 24.6777 9.56836C24.8828 9.38607 25.0081 9.29492 25.0537 9.29492L26.3525 9.94434C25.9652 10.2861 25.5208 10.6849 25.0195 11.1406C24.5182 11.5964 24.0283 12.0863 23.5498 12.6104C23.0713 13.1117 22.6042 13.6471 22.1484 14.2168C21.7155 14.7637 21.3623 15.3105 21.0889 15.8574C21.0889 15.8802 21.0775 15.9372 21.0547 16.0283C21.0547 16.0967 21.0547 16.1536 21.0547 16.1992C21.0547 16.222 21.0547 16.279 21.0547 16.3701C21.0775 16.4385 21.0889 16.484 21.0889 16.5068L28.9844 25.7012C28.9844 25.724 28.9844 25.7695 28.9844 25.8379C29.0072 25.9062 29.0186 25.9632 29.0186 26.0088C29.0186 26.4417 28.7907 26.7721 28.335 27L19.79 17.1562C19.7673 17.1335 19.7331 17.0993 19.6875 17.0537C19.6647 16.9854 19.6305 16.917 19.585 16.8486L19.9609 23.4795C19.9609 23.5934 19.9609 23.8099 19.9609 24.1289C19.9837 24.4479 19.9951 24.8011 19.9951 25.1885C20.0179 25.5531 20.0293 25.9062 20.0293 26.248C20.0521 26.5671 20.0635 26.7835 20.0635 26.8975C19.7673 26.8975 19.4938 26.8405 19.2432 26.7266C18.9925 26.5898 18.7988 26.3734 18.6621 26.0771ZM30.7959 20.7451C30.7959 20.221 30.8415 19.6172 30.9326 18.9336C31.0238 18.2272 31.1719 17.5208 31.377 16.8145C31.582 16.1081 31.8327 15.4131 32.1289 14.7295C32.4479 14.0459 32.8239 13.4421 33.2568 12.918C33.6898 12.3711 34.1911 11.9382 34.7607 11.6191C35.3304 11.2773 35.9684 11.1064 36.6748 11.1064C37.404 11.1064 38.0762 11.3571 38.6914 11.8584C39.3294 12.3597 39.8649 13.0091 40.2979 13.8066C40.7536 14.6042 41.0954 15.4928 41.3232 16.4727C41.5511 17.4525 41.6423 18.4095 41.5967 19.3438C41.5967 20.7109 41.3346 21.93 40.8105 23.001C40.2865 24.0719 39.6143 24.9378 38.7939 25.5986C37.9964 26.2594 37.1305 26.7038 36.1963 26.9316C35.2848 27.1595 34.4189 27.1025 33.5986 26.7607C32.8011 26.3962 32.1289 25.724 31.582 24.7441C31.0579 23.7643 30.7959 22.4313 30.7959 20.7451ZM32.0605 20.8818C32.1289 22.2718 32.3682 23.3428 32.7783 24.0947C33.1885 24.8467 33.6784 25.348 34.248 25.5986C34.8405 25.8265 35.4785 25.8265 36.1621 25.5986C36.8457 25.3708 37.4837 24.972 38.0762 24.4023C38.6686 23.8099 39.1699 23.0807 39.5801 22.2148C40.013 21.3262 40.2523 20.335 40.2979 19.2412C40.3434 18.4209 40.2751 17.6234 40.0928 16.8486C39.9333 16.0739 39.694 15.3903 39.375 14.7979C39.0788 14.1826 38.7028 13.7041 38.2471 13.3623C37.8141 12.9977 37.3128 12.8154 36.7432 12.8154C36.1963 12.8154 35.7064 12.9521 35.2734 13.2256C34.8405 13.499 34.4417 13.875 34.0771 14.3535C33.7354 14.8092 33.4391 15.3333 33.1885 15.9258C32.9378 16.5182 32.7214 17.1107 32.5391 17.7031C32.3796 18.2956 32.2542 18.8766 32.1631 19.4463C32.0947 19.9932 32.0605 20.4717 32.0605 20.8818ZM43.4766 20.7451C43.4766 20.221 43.5221 19.6172 43.6133 18.9336C43.7044 18.2272 43.8525 17.5208 44.0576 16.8145C44.2627 16.1081 44.5133 15.4131 44.8096 14.7295C45.1286 14.0459 45.5046 13.4421 45.9375 12.918C46.3704 12.3711 46.8717 11.9382 47.4414 11.6191C48.0111 11.2773 48.6491 11.1064 49.3555 11.1064C50.0846 11.1064 50.7568 11.3571 51.3721 11.8584C52.0101 12.3597 52.5456 13.0091 52.9785 13.8066C53.4342 14.6042 53.776 15.4928 54.0039 16.4727C54.2318 17.4525 54.3229 18.4095 54.2773 19.3438C54.2773 20.7109 54.0153 21.93 53.4912 23.001C52.9671 24.0719 52.2949 24.9378 51.4746 25.5986C50.6771 26.2594 49.8112 26.7038 48.877 26.9316C47.9655 27.1595 47.0996 27.1025 46.2793 26.7607C45.4818 26.3962 44.8096 25.724 44.2627 24.7441C43.7386 23.7643 43.4766 22.4313 43.4766 20.7451ZM44.7412 20.8818C44.8096 22.2718 45.0488 23.3428 45.459 24.0947C45.8691 24.8467 46.359 25.348 46.9287 25.5986C47.5212 25.8265 48.1592 25.8265 48.8428 25.5986C49.5264 25.3708 50.1644 24.972 50.7568 24.4023C51.3493 23.8099 51.8506 23.0807 52.2607 22.2148C52.6937 21.3262 52.9329 20.335 52.9785 19.2412C53.0241 18.4209 52.9557 17.6234 52.7734 16.8486C52.6139 16.0739 52.3747 15.3903 52.0557 14.7979C51.7594 14.1826 51.3835 13.7041 50.9277 13.3623C50.4948 12.9977 49.9935 12.8154 49.4238 12.8154C48.877 12.8154 48.387 12.9521 47.9541 13.2256C47.5212 13.499 47.1224 13.875 46.7578 14.3535C46.416 14.8092 46.1198 15.3333 45.8691 15.9258C45.6185 16.5182 45.402 17.1107 45.2197 17.7031C45.0602 18.2956 44.9349 18.8766 44.8438 19.4463C44.7754 19.9932 44.7412 20.4717 44.7412 20.8818ZM56.8408 0.442383C57.1598 0.487956 57.4333 0.579102 57.6611 0.71582C57.9118 0.829753 58.1055 1.04622 58.2422 1.36523C58.2422 1.79818 58.2536 2.40202 58.2764 3.17676C58.3219 3.92871 58.3561 4.80599 58.3789 5.80859C58.4245 6.8112 58.4701 7.89355 58.5156 9.05566C58.5612 10.2178 58.6068 11.3913 58.6523 12.5762C58.6979 13.7611 58.7321 14.9346 58.7549 16.0967C58.8005 17.2588 58.8346 18.3411 58.8574 19.3438C58.903 20.3464 58.9372 21.235 58.96 22.0098C58.9827 22.7845 59.0055 23.377 59.0283 23.7871C59.0283 23.8327 59.0169 23.9124 58.9941 24.0264C58.9941 24.1403 58.9827 24.277 58.96 24.4365C58.96 24.596 58.9486 24.7555 58.9258 24.915C58.9258 25.0518 58.9258 25.1543 58.9258 25.2227C58.903 25.3594 58.8916 25.5303 58.8916 25.7354C58.8916 25.9176 58.8688 26.0999 58.8232 26.2822C58.7777 26.4645 58.6979 26.6354 58.584 26.7949C58.4928 26.9316 58.3333 27.0114 58.1055 27.0342L57.5244 26.3164C57.5016 26.2936 57.4674 25.8721 57.4219 25.0518C57.3991 24.2087 57.3535 23.1263 57.2852 21.8047C57.2396 20.4603 57.194 18.9564 57.1484 17.293C57.1029 15.6068 57.0459 13.9092 56.9775 12.2002C56.932 10.4912 56.8864 8.85059 56.8408 7.27832C56.7952 5.70605 56.7611 4.35026 56.7383 3.21094C56.7383 3.11979 56.7383 2.9375 56.7383 2.66406C56.7611 2.39062 56.7725 2.11719 56.7725 1.84375C56.7952 1.54753 56.8066 1.27409 56.8066 1.02344C56.8294 0.75 56.8408 0.556315 56.8408 0.442383Z" fill="#7B61F0"/>
<path d="M61.4551 19.1387C61.4551 19.1159 61.7057 19.0703 62.207 19.002C62.7311 18.9108 63.3919 18.8197 64.1895 18.7285C64.987 18.6374 65.887 18.5462 66.8896 18.4551C67.8923 18.3639 68.9062 18.2728 69.9316 18.1816C70.0228 18.1816 70.2051 18.1816 70.4785 18.1816C70.752 18.1589 71.0254 18.1475 71.2988 18.1475C71.5951 18.1247 71.8685 18.1133 72.1191 18.1133C72.3926 18.0905 72.5863 18.0791 72.7002 18.0791C72.7002 18.3753 72.6318 18.6488 72.4951 18.8994C72.3812 19.1501 72.1875 19.3438 71.9141 19.4805C71.3672 19.5488 70.6836 19.6286 69.8633 19.7197C69.043 19.7881 68.1999 19.8678 67.334 19.959C66.4681 20.0501 65.625 20.1413 64.8047 20.2324C63.9844 20.3236 63.3008 20.3919 62.7539 20.4375C62.7083 20.4375 62.5944 20.4489 62.4121 20.4717C62.2526 20.4717 62.1273 20.4717 62.0361 20.4717C61.7399 20.4717 61.4893 20.4489 61.2842 20.4033C61.0791 20.3577 60.9082 20.1527 60.7715 19.7881L61.4551 19.1387Z" fill="#2A006F"/>
<path d="M79.7412 5.70605C80.5843 5.70605 81.3135 5.95671 81.9287 6.45801C82.5667 6.93652 83.1136 7.58594 83.5693 8.40625C84.0479 9.22656 84.4466 10.1722 84.7656 11.2432C85.0846 12.3141 85.3467 13.4421 85.5518 14.627C85.7568 15.7891 85.9163 16.974 86.0303 18.1816C86.1442 19.3665 86.224 20.4831 86.2695 21.5312C86.3151 22.5794 86.3379 23.5251 86.3379 24.3682C86.3607 25.2113 86.3721 25.8721 86.3721 26.3506H85.5518L84.2529 19.1387C84.139 19.0247 83.877 18.9564 83.4668 18.9336C83.0794 18.9108 82.6123 18.9222 82.0654 18.9678C81.5413 19.0133 80.9603 19.0817 80.3223 19.1729C79.707 19.2412 79.1146 19.2982 78.5449 19.3438C77.998 19.3665 77.4967 19.3779 77.041 19.3779C76.5853 19.3551 76.2549 19.2754 76.0498 19.1387V26.3506H74.3066C74.3066 26.2822 74.3066 26.1569 74.3066 25.9746C74.3294 25.7695 74.3408 25.5645 74.3408 25.3594C74.3408 25.1543 74.3522 24.9606 74.375 24.7783C74.3978 24.596 74.4092 24.4707 74.4092 24.4023C74.5459 23.0807 74.6484 21.7477 74.7168 20.4033C74.8079 19.0361 74.9105 17.7145 75.0244 16.4385C75.1383 15.1624 75.2865 13.9434 75.4688 12.7812C75.6738 11.6191 75.9587 10.571 76.3232 9.63672C76.6878 8.67969 77.1436 7.87077 77.6904 7.20996C78.2373 6.52637 78.9209 6.02507 79.7412 5.70605ZM80.2881 7.27832C79.6956 7.27832 79.1943 7.49479 78.7842 7.92773C78.3968 8.33789 78.0778 8.88477 77.8271 9.56836C77.5765 10.2292 77.3828 10.9697 77.2461 11.79C77.1094 12.6104 77.0182 13.4193 76.9727 14.2168C76.9271 14.9915 76.8929 15.7207 76.8701 16.4043C76.8701 17.0651 76.8701 17.5778 76.8701 17.9424C77.9867 17.9424 79.126 17.8626 80.2881 17.7031C81.4502 17.5208 82.5439 17.3385 83.5693 17.1562C83.5921 17.0651 83.6035 16.917 83.6035 16.7119C83.6263 16.5068 83.6377 16.279 83.6377 16.0283C83.6605 15.7777 83.6719 15.5384 83.6719 15.3105C83.6947 15.0827 83.7061 14.9346 83.7061 14.8662C83.7061 14.1143 83.6605 13.3965 83.5693 12.7129C83.501 12.0293 83.3415 11.3685 83.0908 10.7305C82.863 10.0697 82.5212 9.45443 82.0654 8.88477C81.6325 8.3151 81.04 7.77962 80.2881 7.27832ZM89.4824 13.7383C89.7559 13.7383 89.9837 13.7269 90.166 13.7041C90.3711 13.6813 90.542 13.7952 90.6787 14.0459C90.7471 15.0713 90.8268 16.1195 90.918 17.1904C91.0091 18.2386 91.1003 19.2982 91.1914 20.3691C91.2826 21.4401 91.3395 22.5225 91.3623 23.6162C91.4079 24.6872 91.4193 25.7354 91.3965 26.7607C91.3965 26.8975 91.3623 26.9772 91.2939 27C91.2256 27.0456 91.123 27.057 90.9863 27.0342C90.8724 27.0342 90.7243 27.0228 90.542 27C90.3825 27 90.2002 27.0228 89.9951 27.0684L89.4824 13.7383ZM87.5 7.62012C87.5 7.46061 87.5114 7.28971 87.5342 7.10742C87.557 6.90234 87.6025 6.72005 87.6709 6.56055C87.762 6.40104 87.8646 6.26432 87.9785 6.15039C88.1152 6.03646 88.2747 5.97949 88.457 5.97949C88.7305 5.97949 89.0039 5.99089 89.2773 6.01367C89.5508 6.03646 89.8128 6.09342 90.0635 6.18457C90.3141 6.25293 90.5192 6.37826 90.6787 6.56055C90.8382 6.72005 90.918 6.95931 90.918 7.27832C90.918 7.8252 90.7129 8.3151 90.3027 8.74805C89.8926 9.1582 89.3913 9.36328 88.7988 9.36328C88.3431 9.36328 88.0127 9.19238 87.8076 8.85059C87.6025 8.486 87.5 8.07585 87.5 7.62012ZM89.4824 7.79102C89.4141 7.79102 89.3799 7.84798 89.3799 7.96191C89.3799 8.07585 89.4141 8.13281 89.4824 8.13281C89.5736 8.13281 89.6191 8.07585 89.6191 7.96191C89.6191 7.84798 89.5736 7.79102 89.4824 7.79102ZM92.251 22.0439C92.251 21.4287 92.3535 20.7565 92.5586 20.0273C92.7637 19.2754 93.0599 18.5918 93.4473 17.9766C93.8346 17.3385 94.3018 16.8145 94.8486 16.4043C95.3955 15.9941 96.0335 15.7891 96.7627 15.7891C97.3096 15.7891 97.7881 15.846 98.1982 15.96C98.6312 16.0511 99.0299 16.222 99.3945 16.4727C99.7819 16.7005 100.135 16.9854 100.454 17.3271C100.796 17.6462 101.149 18.0221 101.514 18.4551L101.309 0.920898C101.924 0.693034 102.3 0.601888 102.437 0.647461C102.596 0.693034 102.676 0.886719 102.676 1.22852C102.676 1.27409 102.664 1.34245 102.642 1.43359C102.642 1.52474 102.642 1.58171 102.642 1.60449C102.619 2.03743 102.596 2.65267 102.573 3.4502C102.573 4.24772 102.573 5.17057 102.573 6.21875C102.596 7.26693 102.619 8.40625 102.642 9.63672C102.664 10.8444 102.687 12.0749 102.71 13.3281C102.733 14.5586 102.756 15.7891 102.778 17.0195C102.824 18.2272 102.847 19.3551 102.847 20.4033C102.869 21.4515 102.869 22.3857 102.847 23.2061C102.847 24.0036 102.835 24.6074 102.812 25.0176C102.562 25.5417 102.209 25.9404 101.753 26.2139C101.32 26.4873 100.841 26.6924 100.317 26.8291C99.8161 26.943 99.292 27.0114 98.7451 27.0342C98.1982 27.057 97.6855 27.0684 97.207 27.0684C95.6803 27.0684 94.4727 26.624 93.584 25.7354C92.6953 24.8239 92.251 23.5934 92.251 22.0439ZM93.6182 21.1211C93.6182 21.6908 93.6637 22.2604 93.7549 22.8301C93.846 23.377 94.0055 23.8669 94.2334 24.2998C94.4613 24.7327 94.7803 25.0859 95.1904 25.3594C95.6006 25.61 96.1247 25.7354 96.7627 25.7354C97.1501 25.7354 97.6172 25.7354 98.1641 25.7354C98.7109 25.7354 99.235 25.6784 99.7363 25.5645C100.238 25.4277 100.659 25.2227 101.001 24.9492C101.343 24.6758 101.514 24.2884 101.514 23.7871C101.514 23.1947 101.423 22.5225 101.24 21.7705C101.081 20.9958 100.819 20.2666 100.454 19.583C100.112 18.8766 99.668 18.2842 99.1211 17.8057C98.597 17.3044 97.9704 17.0537 97.2412 17.0537C96.7627 17.0537 96.307 17.179 95.874 17.4297C95.4411 17.6803 95.0537 17.9993 94.7119 18.3867C94.3929 18.7741 94.1309 19.207 93.9258 19.6855C93.7207 20.1641 93.6182 20.6426 93.6182 21.1211Z" fill="#F55E11"/>
</svg>
